<?xml version="1.0" ?><!DOCTYPE svg  PUBLIC '-//W3C//DTD SVG 1.1//EN'  'http://www.w3.org/Graphics/SVG/1.1/DTD/svg11.dtd'><svg height="256px" style="shape-rendering:geometricPrecision; text-rendering:geometricPrecision; image-rendering:optimizeQuality; fill-rule:evenodd; clip-rule:evenodd" version="1.1" viewBox="0 0 256000 255998" width="256px" xml:space="preserve" xmlns="http://www.w3.org/2000/svg" xmlns:xlink="http://www.w3.org/1999/xlink"><defs><style type="text/css">
   <![CDATA[
    .fil3 {fill:none}
    .fil1 {fill:#FEFEFE}
    .fil0 {fill:#ED3237}
    .fil2 {fill:#29292A}
   ]]>
  </style></defs><g id="Layer_x0020_1"><g id="_396600072"><path class="fil0" d="M10463 212205c-3417,-1313 -7377,-5067 -9157,-8679l-1306 -2650 0 -72877 0 -72878 1306 -2650c1833,-3719 5733,-7367 9309,-8704l2940 -1101 114445 0 114445 0 3036 1136c3649,1365 7668,5148 9359,8810l1160 2509 0 72878 0 72877 -1160 2509c-1691,3661 -5710,7445 -9360,8811l-3035 1136 -114597 -29c-113684,-27 -114620,-35 -117385,-1098z"/><polygon class="fil1" points="1182,85693 253565,85693 253565,195253 1182,195253 "/><path class="fil2" d="M172181 161145c-2756,-1931 -5011,-10001 -6002,-21485 -483,-5593 -391,-8509 306,-9637 499,-806 3343,-442 5890,758 4708,2217 4566,1858 5024,12735 466,11018 749,13260 1640,12963 1172,-391 5487,-7335 6140,-9884 358,-1398 613,-4781 567,-7521 -45,-2739 -84,-5522 -84,-6183 -1,-1524 1016,-2772 2257,-2772 1335,0 7618,2969 8479,4006 579,698 594,1753 82,5805 -669,5290 -1368,7425 -2890,8812 -525,478 -1504,1909 -2176,3181 -673,1271 -1541,2311 -1931,2311 -388,0 -805,358 -925,795 -192,708 -154,708 345,0 310,-437 562,-556 562,-264 0,1168 -5182,6139 -6918,6638 -2794,802 -9077,644 -10366,-258l0 0zm-49816 -21619c177,-655 314,-3816 306,-7022 -13,-5587 -49,-5767 -841,-4302 -1019,1880 -3900,10116 -3900,11147 0,882 792,1271 2720,1328 1019,32 1482,-280 1715,-1151l0 0zm1130 22563c-7852,-1001 -10674,-2471 -13914,-7255 -2431,-3588 -2528,-3882 -2835,-8518 -218,-3309 -106,-5378 363,-6657 373,-1021 1055,-3581 1514,-5690 1635,-7502 3398,-10741 9061,-16635 2592,-2698 3252,-3115 4931,-3104 1068,7 2979,484 4251,1060 1270,577 2596,1048 2948,1048 350,0 1191,516 1866,1147 1192,1110 1219,1325 859,7011 -203,3226 -587,6127 -853,6447 -266,319 -547,3698 -626,7507l-144 6929 -2987 835c-2636,738 -3443,748 -6882,92 -4310,-820 -4684,-656 -4699,2063 -11,2116 1882,5864 4060,8042 1522,1523 2171,1799 4237,1799 3394,0 6494,-1036 7445,-2485 983,-1499 2013,-1540 4258,-171 2670,1628 2369,3307 -843,4690 -4506,1937 -7577,2409 -12010,1845l0 0zm-30375 -26008c254,-3067 -142,-8612 -615,-8612 -510,0 -2592,5007 -3198,7688 -379,1687 -291,1978 713,2383 2313,934 2925,645 3100,-1459zm-3445 26846c-2516,-591 -3611,-1170 -7179,-3800 -4076,-3005 -4762,-4864 -4841,-13107 -81,-8434 295,-12105 1695,-16555 1303,-4145 4432,-8017 8959,-11086 2733,-1853 2978,-1917 5770,-1512 4981,723 7446,1713 8285,3325 1649,3171 2221,21285 747,23670 -526,850 -9262,884 -12187,44 -971,-278 -1971,-379 -2220,-226 -251,155 -450,1996 -444,4093 14,4514 1137,7404 3719,9576 1567,1319 2028,1442 4183,1120 1333,-199 3035,-722 3785,-1162 1840,-1085 6732,-125 8397,1648l1157 1231 -2808 1065c-5152,1959 -12678,2699 -17018,1676l0 0zm-21540 -1405c-346,-1384 -1206,-3829 -1912,-5432 -1381,-3132 -3161,-9047 -5025,-16696 -640,-2623 -1352,-5119 -1582,-5544 -595,-1098 -950,2378 -1268,12435 -147,4664 -584,9552 -970,10864l-704 2386 -5235 484 -5235 484 -1174 -1472c-646,-810 -2670,-3954 -4498,-6985 -1830,-3032 -3391,-5447 -3472,-5366 -80,79 162,2387 540,5127 376,2739 577,5393 444,5898 -361,1385 -5358,3348 -8308,3265 -2448,-71 -2969,-1085 -3748,-7312 -1330,-10620 -1448,-13084 -1068,-22220l378 -9082 2331 -624c3755,-1004 7933,-811 9079,419 534,574 3097,5166 5694,10204l4723 9159 668 -5035c986,-7421 3921,-17356 6451,-21829l995 -1757 4679 114c3851,95 4865,300 5724,1158 1328,1330 3841,10837 7534,28527 439,2106 1149,4819 1577,6029 427,1211 776,2640 776,3178 0,537 596,2803 1325,5035 1340,4105 1612,5449 977,4813 -193,-192 -670,-82 -1062,243 -565,468 -6142,1946 -7670,2030 -184,12 -618,-1113 -964,-2498l0 0zm77995 -6813c-342,-5402 -738,-10011 -880,-10240 -143,-231 -2108,-588 -4368,-794 -4645,-420 -5461,-866 -5461,-2990 0,-2378 1702,-3219 5686,-2810l3323 340 -23 -2060c-12,-1133 -251,-3850 -530,-6036 -2038,-16012 -2418,-27372 -1038,-31004 424,-1115 848,-1327 2655,-1327 2081,0 6965,2020 7680,3177 263,426 706,16273 868,31008 11,875 -148,2366 -352,3313 -328,1531 -240,1723 789,1723 952,0 1128,-259 987,-1458 -145,-1239 43,-1483 1255,-1622 1142,-131 2139,522 5016,3287 1975,1899 3416,3627 3202,3841 -806,807 -4433,1766 -6728,1780 -5075,33 -4758,-717 -4460,10593 299,11283 607,10508 -4318,10891l-2682 208 -621 -9820zm66896 -7659c2193,-2084 4564,-4941 5355,-6452 1649,-3153 2474,-7996 2024,-11880 -496,-4291 -949,-4535 -3353,-1806 -3679,4180 -5601,8693 -7680,18047 -486,2187 -1002,4393 -1147,4903 -490,1726 850,941 4801,-2812l0 0zm-11810 36071c-992,-737 -2794,-10666 -3559,-19605 -342,-4015 -546,-4650 -1894,-5911 -2180,-2036 -1799,-4695 673,-4695 955,0 1433,-1378 1775,-5116 612,-6677 2891,-15497 5174,-20030 2615,-5189 9330,-10896 12823,-10896 1144,0 4220,1001 7991,2600 582,247 1729,718 2548,1047 1031,415 1875,1452 2750,3380 2306,5078 2231,11399 -210,17899 -2158,5745 -13395,16057 -19085,17514l-2699 691 15 5070c20,6285 772,12267 1915,15263 479,1255 698,2455 487,2668 -430,430 -8143,536 -8704,121l0 0z"/></g></g><rect class="fil3" height="255998" width="255998" x="1"/></svg>