<?xml version="1.0" ?><!DOCTYPE svg  PUBLIC '-//W3C//DTD SVG 1.1//EN'  'http://www.w3.org/Graphics/SVG/1.1/DTD/svg11.dtd'><svg height="256px" style="shape-rendering:geometricPrecision; text-rendering:geometricPrecision; image-rendering:optimizeQuality; fill-rule:evenodd; clip-rule:evenodd" version="1.1" viewBox="0 0 255998 255995" width="256px" xml:space="preserve" xmlns="http://www.w3.org/2000/svg" xmlns:xlink="http://www.w3.org/1999/xlink"><defs><style type="text/css">
   <![CDATA[
    .fil1 {fill:none}
    .fil0 {fill:#5EA9DD;fill-rule:nonzero}
   ]]>
  </style></defs><g id="Layer_x0020_1"><path class="fil0" d="M238070 52874c4783,-1316 9417,-2973 13859,-4930 866,-490 1971,-487 2856,103 1250,833 1588,2525 754,3775 -3520,5282 -7524,10246 -11953,14835 -4079,4223 -8516,8116 -13265,11631l116 5003c11,98 16,199 16,299 0,37340 -15357,77771 -44646,107056 -24963,24959 -60014,41834 -104265,41834 -14510,0 -28536,-2087 -41819,-5975 -13688,-4008 -26553,-9924 -38307,-17434 -939,-515 -1523,-1560 -1398,-2690 165,-1495 1512,-2572 3007,-2407l-1 5c1997,222 3973,390 5935,500 1909,107 3905,162 5999,162 11522,0 22595,-1922 32905,-5465 8394,-2885 16281,-6835 23492,-11693 -8844,-1395 -16978,-4919 -23854,-10033 -8900,-6618 -15699,-15900 -19221,-26675 -200,-475 -266,-1012 -163,-1556 279,-1478 1703,-2450 3181,-2170l-2 5c1544,292 3063,506 4564,644 1461,135 3006,202 4642,202 539,0 1076,-8 1607,-25 -7730,-3477 -14502,-8716 -19802,-15206 -7626,-9340 -12209,-21262 -12209,-34243l0 -613c-2,-450 107,-907 339,-1329 727,-1317 2384,-1795 3701,-1070l-3 5c3388,1867 6992,3367 10762,4409 677,186 1360,359 2047,516 -4011,-3884 -7425,-8394 -10089,-13370 -4071,-7609 -6385,-16292 -6385,-25482 0,-4877 648,-9622 1865,-14142 1226,-4549 3039,-8873 5361,-12874 168,-359 417,-686 745,-954 1165,-951 2881,-776 3832,388l-2111 1722 2106 -1712c12661,15521 28478,28329 46482,37451 16444,8331 34708,13586 54052,15022 -135,-833 -250,-1668 -346,-2503 -237,-2072 -363,-4161 -363,-6269 0,-14934 6061,-28460 15854,-38253 9792,-9792 23319,-15853 38252,-15853 7599,0 14872,1590 21479,4450 6380,2759 12116,6696 16901,11521 5155,-1081 10159,-2559 14986,-4398 5338,-2034 10447,-4505 15294,-7367 670,-452 1534,-602 2363,-334 1432,464 2215,2001 1752,3431l-9 -2c-2044,6305 -5183,12100 -9198,17149 -1653,2080 -3457,4035 -5395,5850 1244,-292 2477,-605 3698,-941z"/></g><rect class="fil1" height="255995" width="255995" x="2"/></svg>